<?xml version="1.0" encoding="utf-8"?><svg xmlns="http://www.w3.org/2000/svg" xmlns:xlink="http://www.w3.org/1999/xlink"><symbol viewBox="0 0 9 12" id="arr-l" xmlns="http://www.w3.org/2000/svg"><path d="M7.3 12L9 10.6 3.4 6 9 1.4 7.3 0 0 6z" fill-rule="evenodd"/></symbol><symbol viewBox="0 0 9 12" id="arr-r" xmlns="http://www.w3.org/2000/svg"><path data-name="next copy 2" d="M1.7 0L0 1.4 5.59 6 0 10.6 1.7 12 9 6z" fill-rule="evenodd"/></symbol><symbol viewBox="0 0 22 40" id="arrow-top" xmlns="http://www.w3.org/2000/svg"><path d="M1 12c.3 0 .5-.1.7-.3L10 3.4V39c0 .6.4 1 1 1s1-.4 1-1V3.4l8.3 8.3c.4.4 1 .4 1.4 0s.4-1 0-1.4l-10-10c-.1-.1-.2-.2-.3-.2-.2-.1-.5-.1-.8 0-.1.1-.2.1-.3.2l-10 10c-.4.4-.4 1 0 1.4.2.2.4.3.7.3z"/></symbol><symbol viewBox="0 0 14 14" id="calendar" xmlns="http://www.w3.org/2000/svg"><path data-name="Forma 1" d="M5.058 7.724a.322.322 0 0 0-.325-.318H3.6a.321.321 0 0 0-.325.318v1.108a.321.321 0 0 0 .325.318h1.134a.322.322 0 0 0 .325-.318V7.724zm2.834 0a.322.322 0 0 0-.325-.318H6.433a.322.322 0 0 0-.325.318v1.108a.322.322 0 0 0 .325.318h1.134a.322.322 0 0 0 .325-.318V7.724zm2.834 0a.321.321 0 0 0-.325-.318H9.267a.322.322 0 0 0-.325.318v1.108a.322.322 0 0 0 .325.318H10.4a.321.321 0 0 0 .325-.318V7.724zm-5.668 2.771a.322.322 0 0 0-.325-.318H3.6a.321.321 0 0 0-.325.318V11.6a.321.321 0 0 0 .325.317h1.134a.321.321 0 0 0 .325-.317v-1.1zm2.834 0a.322.322 0 0 0-.325-.318H6.433a.322.322 0 0 0-.325.318V11.6a.321.321 0 0 0 .325.317h1.134a.321.321 0 0 0 .325-.317v-1.1zm2.834 0a.321.321 0 0 0-.325-.318H9.267a.322.322 0 0 0-.325.318V11.6a.321.321 0 0 0 .325.317H10.4a.321.321 0 0 0 .325-.317v-1.1zm2.028-8.936v1.693a1.4 1.4 0 0 1-1.418 1.383h-.894a1.406 1.406 0 0 1-1.426-1.383v-1.7H4.984v1.7a1.406 1.406 0 0 1-1.426 1.383h-.894a1.4 1.4 0 0 1-1.418-1.383V1.559A1.274 1.274 0 0 0 0 2.813v9.925A1.275 1.275 0 0 0 1.283 14h11.434A1.278 1.278 0 0 0 14 12.738V2.813a1.274 1.274 0 0 0-1.246-1.254zm-.416 10.561a.548.548 0 0 1-.554.542H2.192a.549.549 0 0 1-.555-.542V6.993a.549.549 0 0 1 .555-.543h9.592a.548.548 0 0 1 .554.543v5.127zM2.661 3.727h.884a.481.481 0 0 0 .487-.476V.475A.481.481 0 0 0 3.545 0h-.884a.481.481 0 0 0-.487.475v2.776a.481.481 0 0 0 .487.476zm7.769 0h.885a.481.481 0 0 0 .486-.476V.475A.481.481 0 0 0 11.315 0h-.885a.481.481 0 0 0-.486.475v2.776a.481.481 0 0 0 .486.476z" fill-rule="evenodd"/></symbol><symbol viewBox="0 0 19 19" id="clip" xmlns="http://www.w3.org/2000/svg"><path data-name="Forma 1" d="M7.061 12.88a.768.768 0 0 0 .51.22.646.646 0 0 0 .509-.22l6.7-6.69a.639.639 0 0 1 .509-.22.723.723 0 0 1 .51 1.24l-7.935 7.93a3.042 3.042 0 0 1-4.15 0 2.872 2.872 0 0 1-.873-2.04 2.757 2.757 0 0 1 .873-2.04l8.809-8.8a.7.7 0 0 0 0-1.02L11.504.22a.7.7 0 0 0-1.019 0L1.676 9.03a5.755 5.755 0 0 0-1.674 4.15 5.867 5.867 0 0 0 1.674 4.14A5.744 5.744 0 0 0 5.826 19a5.866 5.866 0 0 0 4.149-1.68l7.935-7.93a3.7 3.7 0 0 0 1.092-2.55 3.6 3.6 0 0 0-3.64-3.64 3.443 3.443 0 0 0-2.548 1.09l-6.7 6.7a.705.705 0 0 0 0 1.02z" fill-rule="evenodd"/></symbol><symbol viewBox="0 0 15.642 15.642" id="close" xmlns="http://www.w3.org/2000/svg"><path fill-rule="evenodd" d="M8.882 7.821l6.541-6.541A.75.75 0 1 0 14.362.219L7.821 6.76 1.28.22A.75.75 0 1 0 .219 1.281L6.76 7.822l-6.54 6.54a.75.75 0 0 0 1.06 1.061l6.541-6.541 6.541 6.541a.75.75 0 1 0 1.06-1.061l-6.54-6.541z"/></symbol><symbol viewBox="0 0 13 14" id="download" xmlns="http://www.w3.org/2000/svg"><path data-name="Forma 1" d="M9.93 6.38a.438.438 0 0 0-.4-.26H7.8V.44A.435.435 0 0 0 7.37 0H5.63a.435.435 0 0 0-.43.44v5.68H3.47a.455.455 0 0 0-.4.26.447.447 0 0 0 .07.47l3.03 3.5a.442.442 0 0 0 .33.15.482.482 0 0 0 .33-.15l3.03-3.5a.447.447 0 0 0 .07-.47zm1.34 3.24v2.63H1.73V9.62H0v3.5a.873.873 0 0 0 .87.88h11.26a.873.873 0 0 0 .87-.88v-3.5h-1.73z" fill-rule="evenodd"/></symbol><symbol viewBox="0 0 579.9 105.3" id="logo" xmlns="http://www.w3.org/2000/svg"><path d="M74.6 30.1l15.5 22.2.9-1.9c5.7-11.5 4.7-25.1-2.7-35.5C81.1 4.4 68.6-1.2 55.9.2l-2.1.2 15.5 22.2-19.9 14c-.9-.4-1.8-.6-2.7-.6-2.8 0-5.7 2.2-6.6 4.9l-.9 2.9L4.5 68l-.5.4v11.1l30.5-21.3-15.6 47.1h5.8l3.8-9.2h36.7l3.8 9.2h5.8L54.4 44.2l20.2-14.1zm15.1 17.2L76.6 28.7l-.8-1.1L91.9 31c.7 5.5 0 11.1-2.2 16.3zm-3.4-31c2.6 3.7 4.3 7.8 5.2 12l-17.1-3.7 2.4-17.3c3.7 2.3 6.9 5.3 9.5 9zm-28-13.7c5.7-.3 11.2.9 16.1 3.4l-2.2 16.3-.8-1.1L58.3 2.6zm12.9 100.2h-.6L51.8 57.5h-10L23 102.8h-.6l15.6-47 1.3-3.9h15.1l16.8 50.9zm-34-27.9L43.4 60H50l6.2 14.9h-19zm18.7 2.5l-9.2 15-9.2-15h18.4zm-8.8-28H40l1.3-4.1 1.2-3.7c0-.1.1-.3.2-.4.7-1.5 2.5-2.8 4-2.8.9 0 1.9.5 2.7 1.2.7.6 1.2 1.3 1.4 2l.5 1.6.8 2.5 1.2 3.6h-6.2zM6.5 74.7v-5l31.4-22-2.2 6.5L6.5 74.7zm23 18.9l6.1-14.7 9 14.7H29.5zm19.5 0l9-14.7 6.1 14.7H49zm4.3-52.8c-.3-1-.9-2-1.7-2.7l19.2-13.4 1.2 1.7 1.2 1.7-19.6 13.6-.3-.9zM0 105.3h10.4V91.5H0v13.8zM2.5 94h5.4v8.8H2.5V94zm92.6.9v7.9H84.7v-7.9h-2.5v10.4h15.4V94.9z"/><path d="M3.9 82.5h2.5v6.2H3.9zm84.8-25.4h2.5v40.6h-2.5zM45.5 45.6h2.6V43h-2.6zM145.6 87.1l11.7-21.4h10.5v39.1h-10.5V83.3h-.1l-11.7 21.4H135V65.6h10.5V87h.1zm52 1.6h-11.3v16.1h-10.7V65.6h10.7v15h11.3v-15h10.7v39.1h-10.7v-16zM247 65.6v8.8h-10.6v30.3h-10.9V74.5h-10.6v-8.8H247zm9.4 23.1v-8h18.4c-1.4-4.6-4.9-7-10.3-7-2.9 0-5.9 1-8.8 2.9l-2.9-7.8c3.5-2.5 7.8-3.8 12.9-3.8 6.6 0 11.8 1.8 15.4 5.3 3.7 3.6 5.5 8.5 5.5 14.8 0 6.2-1.9 11.1-5.7 14.7-3.8 3.6-8.9 5.4-15.2 5.4-5 0-9.3-1.3-12.9-3.8l2.9-7.8c3 2 5.9 2.9 8.8 2.9 2.7 0 5-.7 6.9-2.1 1.9-1.4 3.1-3.4 3.7-5.9h-18.7zm46.2-6.5h.1l10.1-16.6h12.3l-12.3 18.8 12.9 20.4h-12.3l-10.6-18.2h-.1v18.2H292V65.6h10.7v16.6zm72.8-2.4c1.3-.2 2.6-.3 3.8-.3 4.7 0 8.4 1.1 10.9 3.3 2.6 2.2 3.8 5.2 3.8 9.1 0 4.7-1.3 8.1-3.9 10.2-2.6 2.1-6.8 3.2-12.7 3.2-4.4 0-8.5-.3-12.3-.8V65.6h27.3v8h-16.9v6.2zm0 17.2c.9.2 1.8.3 2.7.3 3.9 0 5.9-1.8 5.9-5.4 0-1.5-.5-2.6-1.5-3.5-1-.9-2.5-1.3-4.4-1.3-.9 0-1.8.1-2.7.3V97zm34.6-4.5v12.2h-10.5V65.9c3.7-.5 7.6-.8 11.8-.8 12.2 0 18.2 4.4 18.2 13.1 0 4.8-1.4 8.4-4.1 10.8-2.7 2.4-6.7 3.7-12 3.7-1.3 0-2.5 0-3.4-.2zm0-7.7c.7.1 1.5.2 2.4.2 2.3 0 4.1-.5 5.4-1.6 1.3-1.1 1.9-2.6 1.9-4.6 0-3.8-2.4-5.6-7.2-5.6-.8 0-1.6.1-2.4.3v11.3zm27.7-14.3c3.6-3.6 8.5-5.4 14.7-5.4 6.1 0 11 1.8 14.7 5.4 3.6 3.6 5.4 8.5 5.4 14.7 0 6.2-1.8 11.1-5.4 14.7-3.6 3.6-8.5 5.4-14.7 5.4-6.1 0-11-1.8-14.7-5.4-3.6-3.6-5.4-8.5-5.4-14.7 0-6.2 1.8-11.1 5.4-14.7zm5.6 14.7c0 7.5 3 11.3 9.1 11.3s9.1-3.8 9.1-11.3-3-11.3-9.1-11.3-9.1 3.8-9.1 11.3zm45.4-3h.1l10.1-16.6h12.3l-12.3 18.8 12.9 20.4h-12.3l-10.6-18.2h-.1v18.2h-10.7V65.6h10.7v16.6zm52.8-1.6v8h-13.9v7.5h15v8.6h-25.7V65.6h25.7v8.6h-15v6.4h13.9zm18.8 11.9v12.2h-10.5V65.9c3.7-.5 7.6-.8 11.8-.8 12.2 0 18.2 4.4 18.2 13.1 0 4.8-1.4 8.4-4.1 10.8s-6.7 3.7-12 3.7c-1.3 0-2.4 0-3.4-.2zm0-7.7c.7.1 1.5.2 2.4.2 2.3 0 4.1-.5 5.4-1.6 1.3-1.1 1.9-2.6 1.9-4.6 0-3.8-2.4-5.6-7.2-5.6-.8 0-1.6.1-2.4.3v11.3z"/><circle cx="342.6" cy="85.2" r="7.6"/></symbol><symbol viewBox="0 0 16 15" id="message" xmlns="http://www.w3.org/2000/svg"><path data-name="Forma 1" d="M8 5.14a1.185 1.185 0 1 0 1.2 1.18A1.191 1.191 0 0 0 8 5.14zM8 0C3.582 0 0 2.83 0 6.32a6.256 6.256 0 0 0 4 5.48v2.43c0 .87.445 1.03.994.34l1.675-2.02a9.682 9.682 0 0 0 1.331.1c4.418 0 8-2.83 8-6.33S12.418 0 8 0zm0 11.07c-3.535 0-6.4-2.13-6.4-4.75S4.465 1.58 8 1.58s6.4 2.12 6.4 4.74-2.866 4.75-6.4 4.75zm3.2-5.93a1.185 1.185 0 1 0 1.2 1.18 1.191 1.191 0 0 0-1.2-1.18zm-6.4 0A1.185 1.185 0 1 0 6 6.32a1.191 1.191 0 0 0-1.2-1.18z" fill-rule="evenodd"/></symbol><symbol viewBox="0 0 11 20" id="phone" xmlns="http://www.w3.org/2000/svg"><path data-name="Forma 1" d="M9.58 0H1.42A1.433 1.433 0 0 0 .01 1.456v17.09A1.433 1.433 0 0 0 1.42 20h8.16a1.433 1.433 0 0 0 1.41-1.456V1.455A1.433 1.433 0 0 0 9.58 0zM3.49.885h4.03a.432.432 0 0 1 0 .7H3.49a.419.419 0 0 1 0-.702zm2.01 17.68a.93.93 0 1 1 .9-.93.913.913 0 0 1-.9.927zm4.43-3.185H1.07V2.457h8.86v12.921z" fill-rule="evenodd"/></symbol><symbol viewBox="0 0 14 14" id="plus" xmlns="http://www.w3.org/2000/svg"><path data-name="Forma 1 copy 20" d="M7.7 4.2H6.3v2.1H4.2v1.4h2.1v2.1h1.4V7.7h2.1V6.3H7.7V4.2zM7 0a7 7 0 1 0 7 7 7.021 7.021 0 0 0-7-7zm0 12.6A5.6 5.6 0 1 1 12.6 7 5.616 5.616 0 0 1 7 12.6z" fill-rule="evenodd"/></symbol></svg>