<?xml version="1.0" encoding="utf-8"?>
<!-- Generator: Adobe Illustrator 21.1.0, SVG Export Plug-In . SVG Version: 6.00 Build 0)  -->
<svg version="1.1" id="Capa_1" xmlns="http://www.w3.org/2000/svg" xmlns:xlink="http://www.w3.org/1999/xlink" x="0px" y="0px"
	 viewBox="0 0 22 40" style="enable-background:new 0 0 22 40;" xml:space="preserve">
<g>
	<path d="M1,12c0.3,0,0.5-0.1,0.7-0.3L10,3.4V39c0,0.6,0.4,1,1,1s1-0.4,1-1V3.4l8.3,8.3c0.4,0.4,1,0.4,1.4,0s0.4-1,0-1.4l-10-10
		c-0.1-0.1-0.2-0.2-0.3-0.2c-0.2-0.1-0.5-0.1-0.8,0c-0.1,0.1-0.2,0.1-0.3,0.2l-10,10c-0.4,0.4-0.4,1,0,1.4C0.5,11.9,0.7,12,1,12z"/>
</g>
</svg>
