<svg xmlns="http://www.w3.org/2000/svg" width="14" height="14" viewBox="0 0 14 14">
  <defs>
    <style>
      .cls-1 {
        fill: #969696;
        fill-rule: evenodd;
      }
    </style>
  </defs>
  <path id="Forma_1" data-name="Forma 1" class="cls-1" d="M380.058,444.724a0.322,0.322,0,0,0-.325-0.318H378.6a0.321,0.321,0,0,0-.325.318v1.108a0.321,0.321,0,0,0,.325.318h1.134a0.322,0.322,0,0,0,.325-0.318v-1.108h0Zm2.834,0a0.322,0.322,0,0,0-.325-0.318h-1.134a0.322,0.322,0,0,0-.325.318v1.108a0.322,0.322,0,0,0,.325.318h1.134a0.322,0.322,0,0,0,.325-0.318v-1.108Zm2.834,0a0.321,0.321,0,0,0-.325-0.318h-1.134a0.322,0.322,0,0,0-.325.318v1.108a0.322,0.322,0,0,0,.325.318H385.4a0.321,0.321,0,0,0,.325-0.318v-1.108Zm-5.668,2.771a0.322,0.322,0,0,0-.325-0.318H378.6a0.321,0.321,0,0,0-.325.318V448.6a0.321,0.321,0,0,0,.325.317h1.134a0.321,0.321,0,0,0,.325-0.317V447.5h0Zm2.834,0a0.322,0.322,0,0,0-.325-0.318h-1.134a0.322,0.322,0,0,0-.325.318V448.6a0.321,0.321,0,0,0,.325.317h1.134a0.321,0.321,0,0,0,.325-0.317V447.5Zm2.834,0a0.321,0.321,0,0,0-.325-0.318h-1.134a0.322,0.322,0,0,0-.325.318V448.6a0.321,0.321,0,0,0,.325.317H385.4a0.321,0.321,0,0,0,.325-0.317V447.5h0Zm2.028-8.936v1.693a1.4,1.4,0,0,1-1.418,1.383h-0.894a1.406,1.406,0,0,1-1.426-1.383v-1.7h-4.032v1.7a1.406,1.406,0,0,1-1.426,1.383h-0.894a1.4,1.4,0,0,1-1.418-1.383v-1.693A1.274,1.274,0,0,0,375,439.813v9.925A1.275,1.275,0,0,0,376.283,451h11.434A1.278,1.278,0,0,0,389,449.738v-9.925A1.274,1.274,0,0,0,387.754,438.559Zm-0.416,10.561a0.548,0.548,0,0,1-.554.542h-9.592a0.549,0.549,0,0,1-.555-0.542v-5.127a0.549,0.549,0,0,1,.555-0.543h9.592a0.548,0.548,0,0,1,.554.543v5.127h0Zm-9.677-8.393h0.884a0.481,0.481,0,0,0,.487-0.476v-2.776a0.481,0.481,0,0,0-.487-0.475h-0.884a0.481,0.481,0,0,0-.487.475v2.776A0.481,0.481,0,0,0,377.661,440.727Zm7.769,0h0.885a0.481,0.481,0,0,0,.486-0.476v-2.776a0.481,0.481,0,0,0-.486-0.475H385.43a0.481,0.481,0,0,0-.486.475v2.776A0.481,0.481,0,0,0,385.43,440.727Z" transform="translate(-375 -437)"/>
</svg>
