<svg xmlns="http://www.w3.org/2000/svg" width="19" height="19" viewBox="0 0 19 19">
  <metadata><?xpacket begin="﻿" id="W5M0MpCehiHzreSzNTczkc9d"?>
<x:xmpmeta xmlns:x="adobe:ns:meta/" x:xmptk="Adobe XMP Core 5.6-c138 79.159824, 2016/09/14-01:09:01        ">
   <rdf:RDF xmlns:rdf="http://www.w3.org/1999/02/22-rdf-syntax-ns#">
      <rdf:Description rdf:about=""/>
   </rdf:RDF>
</x:xmpmeta>
                                                                                                    
                                                                                                    
                                                                                                    
                                                                                                    
                                                                                                    
                                                                                                    
                                                                                                    
                                                                                                    
                                                                                                    
                                                                                                    
                                                                                                    
                                                                                                    
                                                                                                    
                                                                                                    
                                                                                                    
                                                                                                    
                                                                                                    
                                                                                                    
                                                                                                    
                                                                                                    
                           
<?xpacket end="w"?></metadata>
<defs>
    <style>
      .cls-1 {
        fill: #faa719;
        fill-rule: evenodd;
      }
    </style>
  </defs>
  <path id="Forma_1" data-name="Forma 1" class="cls-1" d="M382.061,2381.88a0.768,0.768,0,0,0,.51.22,0.646,0.646,0,0,0,.509-0.22l6.7-6.69a0.639,0.639,0,0,1,.509-0.22,0.723,0.723,0,0,1,.51,1.24l-7.935,7.93a3.042,3.042,0,0,1-4.15,0,2.872,2.872,0,0,1-.873-2.04,2.757,2.757,0,0,1,.873-2.04l8.809-8.8a0.7,0.7,0,0,0,0-1.02l-1.019-1.02a0.7,0.7,0,0,0-1.019,0l-8.809,8.81a5.755,5.755,0,0,0-1.674,4.15,5.867,5.867,0,0,0,1.674,4.14,5.744,5.744,0,0,0,4.15,1.68,5.866,5.866,0,0,0,4.149-1.68l7.935-7.93a3.7,3.7,0,0,0,1.092-2.55,3.6,3.6,0,0,0-3.64-3.64,3.443,3.443,0,0,0-2.548,1.09l-6.7,6.7a0.705,0.705,0,0,0,0,1.02Z" transform="translate(-375 -2369)"/>
</svg>
