<svg xmlns="http://www.w3.org/2000/svg" width="13" height="14" viewBox="0 0 13 14">
  <metadata><?xpacket begin="﻿" id="W5M0MpCehiHzreSzNTczkc9d"?>
<x:xmpmeta xmlns:x="adobe:ns:meta/" x:xmptk="Adobe XMP Core 5.6-c138 79.159824, 2016/09/14-01:09:01        ">
   <rdf:RDF xmlns:rdf="http://www.w3.org/1999/02/22-rdf-syntax-ns#">
      <rdf:Description rdf:about=""/>
   </rdf:RDF>
</x:xmpmeta>
                                                                                                    
                                                                                                    
                                                                                                    
                                                                                                    
                                                                                                    
                                                                                                    
                                                                                                    
                                                                                                    
                                                                                                    
                                                                                                    
                                                                                                    
                                                                                                    
                                                                                                    
                                                                                                    
                                                                                                    
                                                                                                    
                                                                                                    
                                                                                                    
                                                                                                    
                                                                                                    
                           
<?xpacket end="w"?></metadata>
<defs>
    <style>
      .cls-1 {
        fill: #faa719;
        fill-rule: evenodd;
      }
    </style>
  </defs>
  <path id="Forma_1" data-name="Forma 1" class="cls-1" d="M1469.93,1653.38a0.438,0.438,0,0,0-.4-0.26h-1.73v-5.68a0.435,0.435,0,0,0-.43-0.44h-1.74a0.435,0.435,0,0,0-.43.44v5.68h-1.73a0.455,0.455,0,0,0-.4.26,0.447,0.447,0,0,0,.07.47l3.03,3.5a0.442,0.442,0,0,0,.33.15,0.482,0.482,0,0,0,.33-0.15l3.03-3.5A0.447,0.447,0,0,0,1469.93,1653.38Zm1.34,3.24v2.63h-9.54v-2.63H1460v3.5a0.873,0.873,0,0,0,.87.88h11.26a0.873,0.873,0,0,0,.87-0.88v-3.5h-1.73Z" transform="translate(-1460 -1647)"/>
</svg>
