<?xml version="1.0" encoding="utf-8"?>
<!-- Generator: Adobe Illustrator 21.1.0, SVG Export Plug-In . SVG Version: 6.00 Build 0)  -->
<svg version="1.1" id="Layer_1" xmlns="http://www.w3.org/2000/svg" xmlns:xlink="http://www.w3.org/1999/xlink" x="0px" y="0px"
	 viewBox="0 0 579.9 105.3" style="enable-background:new 0 0 579.9 105.3;" xml:space="preserve">
<g>
	<path d="M74.6,30.1l15.5,22.2l0.9-1.9c5.7-11.5,4.7-25.1-2.7-35.5C81.1,4.4,68.6-1.2,55.9,0.2l-2.1,0.2l15.5,22.2L49.4,36.6
		c-0.9-0.4-1.8-0.6-2.7-0.6c-2.8,0-5.7,2.2-6.6,4.9l-0.9,2.9L4.5,68l-0.5,0.4v11.1l30.5-21.3l-15.6,47.1h5.8l3.8-9.2h36.7l3.8,9.2
		h5.8L54.4,44.2L74.6,30.1z M89.7,47.3L76.6,28.7l0,0l-0.8-1.1L91.9,31C92.6,36.5,91.9,42.1,89.7,47.3z M86.3,16.3
		c2.6,3.7,4.3,7.8,5.2,12l-17.1-3.7l2.4-17.3C80.5,9.6,83.7,12.6,86.3,16.3z M58.3,2.6C64,2.3,69.5,3.5,74.4,6l-2.2,16.3l-0.8-1.1
		l0,0L58.3,2.6z M71.2,102.8h-0.6L51.8,57.5h-10l-18.8,45.3h-0.6l15.6-47l1.3-3.9h4.3h10.8L71.2,102.8z M37.2,74.9L43.4,60h6.6
		l6.2,14.9H37.2z M55.9,77.4l-9.2,15l-9.2-15H55.9z M47.1,49.4h-4.4H40l1.3-4.1l1.2-3.7c0-0.1,0.1-0.3,0.2-0.4
		c0.7-1.5,2.5-2.8,4-2.8c0,0,0,0,0,0c0.9,0,1.9,0.5,2.7,1.2c0.7,0.6,1.2,1.3,1.4,2l0.5,1.6l0.8,2.5l1.2,3.6H47.1z M6.5,74.7v-5
		l31.4-22l-2.2,6.5L6.5,74.7z M29.5,93.6l6.1-14.7l9,14.7H29.5z M49,93.6l9-14.7l6.1,14.7H49z M53.3,40.8c-0.3-1-0.9-2-1.7-2.7
		l19.2-13.4l1.2,1.7l1.2,1.7L53.6,41.7L53.3,40.8z"/>
	<path d="M0,105.3h10.4V91.5H0V105.3z M2.5,94h5.4v8.8H2.5V94z"/>
	<polygon points="95.1,94.9 95.1,102.8 84.7,102.8 84.7,94.9 82.2,94.9 82.2,105.3 97.6,105.3 97.6,94.9 	"/>
	<rect x="3.9" y="82.5" width="2.5" height="6.2"/>
	<rect x="88.7" y="57.1" width="2.5" height="40.6"/>
	<polygon points="45.5,45.6 48,45.6 48.1,45.6 48.1,45.6 48.1,43 45.5,43 	"/>
</g>
<g>
	<g>
		<g>
			<path d="M145.6,87.1l11.7-21.4h10.5v39.1h-10.5V83.3h-0.1l-11.7,21.4h-10.5V65.6h10.5v21.4H145.6z"/>
			<path d="M197.6,88.7h-11.3v16.1h-10.7V65.6h10.7v15h11.3v-15h10.7v39.1h-10.7V88.7z"/>
			<path d="M247,65.6v8.8h-10.6v30.3h-10.9V74.5h-10.6v-8.8H247z"/>
			<path d="M256.4,88.7v-8h18.4c-1.4-4.6-4.9-7-10.3-7c-2.9,0-5.9,1-8.8,2.9l-2.9-7.8c3.5-2.5,7.8-3.8,12.9-3.8
				c6.6,0,11.8,1.8,15.4,5.3c3.7,3.6,5.5,8.5,5.5,14.8c0,6.2-1.9,11.1-5.7,14.7c-3.8,3.6-8.9,5.4-15.2,5.4c-5,0-9.3-1.3-12.9-3.8
				l2.9-7.8c3,2,5.9,2.9,8.8,2.9c2.7,0,5-0.7,6.9-2.1c1.9-1.4,3.1-3.4,3.7-5.9H256.4z"/>
			<path d="M302.6,82.2h0.1l10.1-16.6h12.3l-12.3,18.8l12.9,20.4h-12.3l-10.6-18.2h-0.1v18.2h-10.7V65.6h10.7V82.2z"/>
			<path d="M375.4,79.8c1.3-0.2,2.6-0.3,3.8-0.3c4.7,0,8.4,1.1,10.9,3.3c2.6,2.2,3.8,5.2,3.8,9.1c0,4.7-1.3,8.1-3.9,10.2
				c-2.6,2.1-6.8,3.2-12.7,3.2c-4.4,0-8.5-0.3-12.3-0.8V65.6h27.3v8h-16.9V79.8z M375.4,97c0.9,0.2,1.8,0.3,2.7,0.3
				c3.9,0,5.9-1.8,5.9-5.4c0-1.5-0.5-2.6-1.5-3.5c-1-0.9-2.5-1.3-4.4-1.3c-0.9,0-1.8,0.1-2.7,0.3V97z"/>
			<path d="M410,92.5v12.2h-10.5V65.9c3.7-0.5,7.6-0.8,11.8-0.8c12.2,0,18.2,4.4,18.2,13.1c0,4.8-1.4,8.4-4.1,10.8
				c-2.7,2.4-6.7,3.7-12,3.7C412.1,92.7,410.9,92.7,410,92.5z M410,84.8c0.7,0.1,1.5,0.2,2.4,0.2c2.3,0,4.1-0.5,5.4-1.6
				c1.3-1.1,1.9-2.6,1.9-4.6c0-3.8-2.4-5.6-7.2-5.6c-0.8,0-1.6,0.1-2.4,0.3V84.8z"/>
			<path d="M437.7,70.5c3.6-3.6,8.5-5.4,14.7-5.4c6.1,0,11,1.8,14.7,5.4c3.6,3.6,5.4,8.5,5.4,14.7c0,6.2-1.8,11.1-5.4,14.7
				c-3.6,3.6-8.5,5.4-14.7,5.4c-6.1,0-11-1.8-14.7-5.4c-3.6-3.6-5.4-8.5-5.4-14.7C432.3,79,434.1,74.1,437.7,70.5z M443.3,85.2
				c0,7.5,3,11.3,9.1,11.3c6.1,0,9.1-3.8,9.1-11.3s-3-11.3-9.1-11.3C446.3,73.9,443.3,77.7,443.3,85.2z"/>
			<path d="M488.7,82.2h0.1l10.1-16.6h12.3l-12.3,18.8l12.9,20.4h-12.3l-10.6-18.2h-0.1v18.2h-10.7V65.6h10.7V82.2z"/>
			<path d="M541.5,80.6v8h-13.9v7.5h15v8.6h-25.7V65.6h25.7v8.6h-15v6.4H541.5z"/>
			<path d="M560.3,92.5v12.2h-10.5V65.9c3.7-0.5,7.6-0.8,11.8-0.8c12.2,0,18.2,4.4,18.2,13.1c0,4.8-1.4,8.4-4.1,10.8
				s-6.7,3.7-12,3.7C562.4,92.7,561.3,92.7,560.3,92.5z M560.3,84.8c0.7,0.1,1.5,0.2,2.4,0.2c2.3,0,4.1-0.5,5.4-1.6
				c1.3-1.1,1.9-2.6,1.9-4.6c0-3.8-2.4-5.6-7.2-5.6c-0.8,0-1.6,0.1-2.4,0.3V84.8z"/>
		</g>
	</g>
	<circle cx="342.6" cy="85.2" r="7.6"/>
</g>
</svg>
