<svg xmlns="http://www.w3.org/2000/svg" width="16" height="15" viewBox="0 0 16 15">
  <metadata><?xpacket begin="﻿" id="W5M0MpCehiHzreSzNTczkc9d"?>
<x:xmpmeta xmlns:x="adobe:ns:meta/" x:xmptk="Adobe XMP Core 5.6-c138 79.159824, 2016/09/14-01:09:01        ">
   <rdf:RDF xmlns:rdf="http://www.w3.org/1999/02/22-rdf-syntax-ns#">
      <rdf:Description rdf:about=""/>
   </rdf:RDF>
</x:xmpmeta>
                                                                                                    
                                                                                                    
                                                                                                    
                                                                                                    
                                                                                                    
                                                                                                    
                                                                                                    
                                                                                                    
                                                                                                    
                                                                                                    
                                                                                                    
                                                                                                    
                                                                                                    
                                                                                                    
                                                                                                    
                                                                                                    
                                                                                                    
                                                                                                    
                                                                                                    
                                                                                                    
                           
<?xpacket end="w"?></metadata>
<defs>
    <style>
      .cls-1 {
        fill: #faa719;
        fill-rule: evenodd;
      }
    </style>
  </defs>
  <path id="Forma_1" data-name="Forma 1" class="cls-1" d="M789,3192.14a1.185,1.185,0,1,0,1.2,1.18A1.191,1.191,0,0,0,789,3192.14Zm0-5.14c-4.418,0-8,2.83-8,6.32a6.256,6.256,0,0,0,4,5.48v2.43c0,0.87.445,1.03,0.994,0.34l1.675-2.02a9.682,9.682,0,0,0,1.331.1c4.418,0,8-2.83,8-6.33S793.418,3187,789,3187Zm0,11.07c-3.535,0-6.4-2.13-6.4-4.75s2.865-4.74,6.4-4.74,6.4,2.12,6.4,4.74S792.534,3198.07,789,3198.07Zm3.2-5.93a1.185,1.185,0,1,0,1.2,1.18A1.191,1.191,0,0,0,792.2,3192.14Zm-6.4,0a1.185,1.185,0,1,0,1.2,1.18A1.191,1.191,0,0,0,785.8,3192.14Z" transform="translate(-781 -3187)"/>
</svg>
