<svg xmlns="http://www.w3.org/2000/svg" width="11" height="20" viewBox="0 0 11 20">
  <metadata><?xpacket begin="﻿" id="W5M0MpCehiHzreSzNTczkc9d"?>
<x:xmpmeta xmlns:x="adobe:ns:meta/" x:xmptk="Adobe XMP Core 5.6-c138 79.159824, 2016/09/14-01:09:01        ">
   <rdf:RDF xmlns:rdf="http://www.w3.org/1999/02/22-rdf-syntax-ns#">
      <rdf:Description rdf:about=""/>
   </rdf:RDF>
</x:xmpmeta>
                                                                                                    
                                                                                                    
                                                                                                    
                                                                                                    
                                                                                                    
                                                                                                    
                                                                                                    
                                                                                                    
                                                                                                    
                                                                                                    
                                                                                                    
                                                                                                    
                                                                                                    
                                                                                                    
                                                                                                    
                                                                                                    
                                                                                                    
                                                                                                    
                                                                                                    
                                                                                                    
                           
<?xpacket end="w"?></metadata>
<defs>
    <style>
      .cls-1 {
        fill: #1e1e1e;
        fill-rule: evenodd;
      }
    </style>
  </defs>
  <path id="Forma_1" data-name="Forma 1" class="cls-1" d="M1677.58,67h-8.16a1.433,1.433,0,0,0-1.41,1.456v17.09A1.433,1.433,0,0,0,1669.42,87h8.16a1.433,1.433,0,0,0,1.41-1.456V68.455A1.433,1.433,0,0,0,1677.58,67Zm-6.09.885h4.03a0.432,0.432,0,0,1,0,.7h-4.03A0.419,0.419,0,0,1,1671.49,67.883Zm2.01,17.68a0.93,0.93,0,1,1,.9-0.93A0.913,0.913,0,0,1,1673.5,85.562Zm4.43-3.185h-8.86V69.457h8.86V82.378Z" transform="translate(-1668 -67)"/>
</svg>
