<svg width="36" height="35" viewBox="0 0 36 35">
  <path id="Forma_1" data-name="Forma 1" class="cls-1" d="M1788.59,1024.49h-30.07a0.523,0.523,0,0,0-.52.52h0v14.52a0.514,0.514,0,0,0,.51.52h20.45a0.52,0.52,0,0,0,0-1.04h-19.93v-13.48h29.04v1.3a0.523,0.523,0,0,0,.52.52h0a0.521,0.521,0,0,0,.51-0.52h0v-1.82A0.521,0.521,0,0,0,1788.59,1024.49Zm-3.5-2.4-24.06-5.45a0.507,0.507,0,0,0-.38.07,0.5,0.5,0,0,0-.23.33l-1.2,5.44a0.51,0.51,0,0,0,.39.62,0.52,0.52,0,0,0,.61-0.39l1.09-4.94,23.56,5.33a0.375,0.375,0,0,0,.11.01,0.514,0.514,0,0,0,.51-0.52A0.5,0.5,0,0,0,1785.09,1022.09Zm-2.92-3-14.43-6.05a0.521,0.521,0,0,0-.67.25l-1.2,2.42a0.524,0.524,0,0,0,.21.7,0.513,0.513,0,0,0,.7-0.21c0.01-.01.01-0.02,0.02-0.03h0l0.98-1.99,13.99,5.87A0.52,0.52,0,0,0,1782.17,1019.09Zm0.36,7.82h-4.77a0.521,0.521,0,0,0-.51.52,0.514,0.514,0,0,0,.51.52h4.77a0.516,0.516,0,0,0,.52-0.52A0.523,0.523,0,0,0,1782.53,1026.91Zm-9.58.04a5.325,5.325,0,1,0,5.29,5.32A5.3,5.3,0,0,0,1772.95,1026.95Zm0,9.68a4.355,4.355,0,1,1,4.33-4.36A4.345,4.345,0,0,1,1772.95,1036.63Zm14.43-7.99c-3.18,0-6.61.76-6.61,2.42v14.52c0,1.66,3.43,2.42,6.61,2.42s6.62-.76,6.62-2.42v-14.52C1794,1029.4,1790.57,1028.64,1787.38,1028.64Zm5.42,16.93c-0.09.34-1.9,1.22-5.42,1.22s-5.32-.88-5.41-1.21v-0.95a13.177,13.177,0,0,0,5.41.95,13.362,13.362,0,0,0,5.42-.95v0.94Zm0-2.42c-0.09.34-1.9,1.22-5.42,1.22s-5.32-.88-5.41-1.21v-0.95a13.177,13.177,0,0,0,5.41.95,13.362,13.362,0,0,0,5.42-.95v0.94Zm0-2.42c-0.09.34-1.9,1.22-5.42,1.22s-5.32-.88-5.41-1.21v-0.95a13.177,13.177,0,0,0,5.41.95,13.362,13.362,0,0,0,5.42-.95v0.94Zm0-2.42c-0.09.34-1.9,1.22-5.42,1.22s-5.32-.88-5.41-1.21v-0.95a15.908,15.908,0,0,0,10.83,0v0.94Zm0-2.42c-0.09.34-1.9,1.22-5.42,1.22s-5.32-.88-5.41-1.21v-0.95a15.908,15.908,0,0,0,10.83,0v0.94Zm0-2.42c-0.09.34-1.9,1.22-5.42,1.22s-5.32-.88-5.41-1.21v-0.95a15.908,15.908,0,0,0,10.83,0v0.94Zm-5.42-1.2c-3.51,0-5.31-.88-5.41-1.2h0c0.1-.34,1.9-1.22,5.41-1.22,3.49,0,5.3.87,5.42,1.21C1792.68,1031.4,1790.87,1032.27,1787.38,1032.27Zm-19.24,4.32h-4.55l-2.15-2.37v-3.93l2.38-2.34h4.32a0.514,0.514,0,0,0,.51-0.52,0.521,0.521,0,0,0-.51-0.52h-4.53a0.515,0.515,0,0,0-.36.15l-2.69,2.64a0.618,0.618,0,0,0-.15.42v4.3a0.491,0.491,0,0,0,.13.35l2.44,2.69a0.517,0.517,0,0,0,.38.17h4.78A0.52,0.52,0,0,0,1768.14,1036.59Zm5.11-4.92h-0.6a0.3,0.3,0,0,1-.3-0.15,0.29,0.29,0,0,1,.3-0.16h1.5a0.6,0.6,0,0,0,.6-0.6,0.61,0.61,0,0,0-.6-0.61h-0.6a0.6,0.6,0,0,0-1.2,0v0.03a1.409,1.409,0,0,0-1.2,1.33,1.439,1.439,0,0,0,1.5,1.37h0.6a0.287,0.287,0,0,1,.3.15,0.3,0.3,0,0,1-.3.15h-1.5a0.605,0.605,0,0,0,0,1.21h0.6a0.6,0.6,0,0,0,1.2,0v-0.03a1.392,1.392,0,0,0,1.2-1.33A1.431,1.431,0,0,0,1773.25,1031.67Z" transform="translate(-1758 -1013)"/>
</svg>
