<svg xmlns="http://www.w3.org/2000/svg" width="38" height="38" viewBox="0 0 38 38">
  <path class="cls-1" d="M1206.9,1030.39h0.1a1.344,1.344,0,0,1,.48.08l6.2,2.26,1.91,3.17H1219v-1.22h-2.72l-1.77-2.96-5.36-1.95h0.04v-5.51h-7.35v-1.84h1.22v-1.23h-1.22v-7.97h1.22V1012H1181v1.22h1.23v7.97H1181v1.23h1.23V1031H1181v1.23h1.23v7.96H1181v1.23h12.26V1050h15.93v-4.9h5.77l1.84-1.84h2.2v-1.23h-2.71l-1.83,1.84h-5.27v-8.91l-3.06-2.04A1.383,1.383,0,0,1,1206.9,1030.39Zm-23.45-17.17h17.16v7.97h-4.93a3.7,3.7,0,0,0-.65-1.77l-3-4.18-2.99,4.18a3.716,3.716,0,0,0-.66,1.77h-4.93v-7.97Zm17.16,9.2v1.84h-5.84a3.64,3.64,0,0,0,.88-1.84h4.96Zm-7.35,17.77h-9.81v-7.96h9.81v7.96Zm0-9.19h-9.81v-8.58h4.96a3.667,3.667,0,0,0,3.62,3.06,3.873,3.873,0,0,0,1.23-.21V1031Zm-1.23-6.74a2.454,2.454,0,0,1-2.45-2.45v-0.25a2.43,2.43,0,0,1,.46-1.42l1.99-2.8,2,2.8a2.42,2.42,0,0,1,.45,1.42v0.25A2.454,2.454,0,0,1,1192.03,1024.26Zm12.26,7.51a2.647,2.647,0,0,0,.16.89,5.463,5.463,0,0,0-3.22-1.05,5.532,5.532,0,1,0,4.7,2.65l2.04,1.36v13.15h-13.49v-23.29h13.49v3.86l-0.08-.02a2.421,2.421,0,0,0-.89-0.16h-0.1A2.612,2.612,0,0,0,1204.29,1031.77Zm1.23,5.36a4.29,4.29,0,1,1-4.29-4.29A4.3,4.3,0,0,1,1205.52,1037.13Zm-9.81-10.42h1.23v1.22h-1.23v-1.22Zm9.81,0h1.22v1.22h-1.22v-1.22Zm0,19.61h1.22v1.23h-1.22v-1.23Zm-9.81,0h1.23v1.23h-1.23v-1.23Zm4.9-11.03h1.23a0.606,0.606,0,0,1,.61.61h1.23a1.848,1.848,0,0,0-1.84-1.84v-0.61h-1.23v0.61a1.84,1.84,0,1,0,0,3.68h1.23a0.615,0.615,0,0,1,0,1.23h-1.23a0.621,0.621,0,0,1-.61-0.62h-1.23a1.842,1.842,0,0,0,1.84,1.84v0.62h1.23v-0.62a1.835,1.835,0,1,0,0-3.67h-1.23a0.621,0.621,0,0,1-.61-0.62A0.612,0.612,0,0,1,1200.61,1035.29Z" transform="translate(-1181 -1012)"/>
</svg>
